<svg width="400" height="80" viewBox="0 0 400 80" fill="none" xmlns="http://www.w3.org/2000/svg">
<path d="M14.448 20.192C20.5333 20.192 25.4053 21.5733 29.064 24.336C32.76 27.0613 34.608 32.0827 34.608 39.4C34.608 46.6053 32.816 51.6827 29.232 54.632C25.648 57.544 21 59 15.288 59H3.64V20.192H14.448ZM12.824 26.856V52.336H15.848C18.872 52.336 21.168 51.4027 22.736 49.536C24.304 47.632 25.088 44.2533 25.088 39.4C25.088 36.0773 24.696 33.5013 23.912 31.672C23.128 29.8427 22.064 28.592 20.72 27.92C19.376 27.2107 17.7147 26.856 15.736 26.856H12.824ZM48.7966 29.264V59H39.9486V29.264H48.7966ZM44.3166 13.584C45.8472 13.584 47.0979 14.0693 48.0686 15.04C49.0766 15.9733 49.5806 17.168 49.5806 18.624C49.5806 20.08 49.0766 21.2933 48.0686 22.264C47.0979 23.1973 45.8472 23.664 44.3166 23.664C42.7859 23.664 41.5352 23.1973 40.5646 22.264C39.5939 21.2933 39.1086 20.08 39.1086 18.624C39.1086 17.168 39.5939 15.9733 40.5646 15.04C41.5352 14.0693 42.7859 13.584 44.3166 13.584ZM88.6253 28.312C90.9773 28.312 92.8626 29.1147 94.2813 30.72C95.6999 32.288 96.4093 34.472 96.4093 37.272V59H87.5613V38.784C87.5613 36.1333 86.7213 34.808 85.0413 34.808C84.1079 34.808 83.2866 35.1253 82.5773 35.76C81.8679 36.3947 81.1773 37.3653 80.5053 38.672V59H71.6573V38.784C71.6573 36.1333 70.8173 34.808 69.1373 34.808C68.2413 34.808 67.4199 35.144 66.6732 35.816C65.9639 36.4507 65.2733 37.4027 64.6013 38.672V59H55.7533V29.264H63.4813L64.0973 32.736C65.2546 31.2427 66.5239 30.1413 67.9053 29.432C69.3239 28.6853 70.9293 28.312 72.7213 28.312C74.4013 28.312 75.8386 28.7227 77.0333 29.544C78.2653 30.3653 79.1613 31.5227 79.7213 33.016C80.9159 31.4107 82.2226 30.2347 83.6413 29.488C85.0973 28.704 86.7586 28.312 88.6253 28.312ZM126.69 50.376C126.69 51.496 126.839 52.3173 127.138 52.84C127.474 53.3627 127.997 53.7547 128.706 54.016L126.858 59.784C125.029 59.6347 123.535 59.2427 122.378 58.608C121.221 57.936 120.325 56.8907 119.69 55.472C117.749 58.4587 114.762 59.952 110.73 59.952C107.781 59.952 105.429 59.0933 103.674 57.376C101.919 55.6587 101.042 53.4187 101.042 50.656C101.042 47.408 102.237 44.9253 104.626 43.208C107.015 41.4907 110.469 40.632 114.986 40.632H118.01V39.344C118.01 37.5893 117.637 36.3947 116.89 35.76C116.143 35.088 114.837 34.752 112.97 34.752C111.999 34.752 110.823 34.9013 109.442 35.2C108.061 35.4613 106.642 35.8347 105.186 36.32L103.17 30.496C105.037 29.7867 106.941 29.2453 108.882 28.872C110.861 28.4987 112.69 28.312 114.37 28.312C118.626 28.312 121.743 29.1893 123.722 30.944C125.701 32.6987 126.69 35.3307 126.69 38.84V50.376ZM113.306 53.624C115.322 53.624 116.89 52.672 118.01 50.768V45.504H115.826C113.81 45.504 112.298 45.8587 111.29 46.568C110.319 47.2773 109.834 48.3787 109.834 49.872C109.834 51.0667 110.133 52 110.73 52.672C111.365 53.3067 112.223 53.624 113.306 53.624ZM143.663 28.312C145.791 28.312 147.788 28.6293 149.655 29.264C151.521 29.8987 153.164 30.7947 154.583 31.952L151.335 36.936C148.908 35.4053 146.463 34.64 143.999 34.64C142.841 34.64 141.945 34.8453 141.311 35.256C140.713 35.6293 140.415 36.1707 140.415 36.88C140.415 37.44 140.545 37.9067 140.807 38.28C141.105 38.616 141.684 38.9707 142.543 39.344C143.401 39.7173 144.727 40.1653 146.519 40.688C149.617 41.584 151.913 42.76 153.407 44.216C154.937 45.6347 155.703 47.6133 155.703 50.152C155.703 52.168 155.124 53.9227 153.967 55.416C152.809 56.872 151.223 57.992 149.207 58.776C147.191 59.56 144.951 59.952 142.487 59.952C139.985 59.952 137.652 59.56 135.487 58.776C133.359 57.992 131.548 56.9093 130.055 55.528L134.367 50.712C136.868 52.6533 139.5 53.624 142.263 53.624C143.607 53.624 144.652 53.3813 145.399 52.896C146.183 52.4107 146.575 51.72 146.575 50.824C146.575 50.1147 146.425 49.5547 146.127 49.144C145.828 48.7333 145.249 48.36 144.391 48.024C143.532 47.6507 142.169 47.2027 140.303 46.68C137.353 45.8213 135.151 44.6267 133.695 43.096C132.239 41.5653 131.511 39.6613 131.511 37.384C131.511 35.6667 131.996 34.136 132.967 32.792C133.975 31.4107 135.393 30.328 137.223 29.544C139.089 28.7227 141.236 28.312 143.663 28.312ZM186.262 20.192C191.377 20.192 195.353 21.256 198.19 23.384C201.027 25.512 202.446 28.6667 202.446 32.848C202.446 37.216 201.046 40.52 198.246 42.76C195.483 44.9627 191.769 46.064 187.102 46.064H182.902V59H173.718V20.192H186.262ZM186.318 39.456C188.483 39.456 190.126 38.952 191.246 37.944C192.403 36.8987 192.982 35.2 192.982 32.848C192.982 28.7787 190.705 26.744 186.15 26.744H182.902V39.456H186.318ZM227.862 50.376C227.862 51.496 228.011 52.3173 228.31 52.84C228.646 53.3627 229.168 53.7547 229.878 54.016L228.03 59.784C226.2 59.6347 224.707 59.2427 223.55 58.608C222.392 57.936 221.496 56.8907 220.862 55.472C218.92 58.4587 215.934 59.952 211.902 59.952C208.952 59.952 206.6 59.0933 204.846 57.376C203.091 55.6587 202.214 53.4187 202.214 50.656C202.214 47.408 203.408 44.9253 205.798 43.208C208.187 41.4907 211.64 40.632 216.158 40.632H219.182V39.344C219.182 37.5893 218.808 36.3947 218.062 35.76C217.315 35.088 216.008 34.752 214.142 34.752C213.171 34.752 211.995 34.9013 210.614 35.2C209.232 35.4613 207.814 35.8347 206.358 36.32L204.342 30.496C206.208 29.7867 208.112 29.2453 210.054 28.872C212.032 28.4987 213.862 28.312 215.542 28.312C219.798 28.312 222.915 29.1893 224.894 30.944C226.872 32.6987 227.862 35.3307 227.862 38.84V50.376ZM214.478 53.624C216.494 53.624 218.062 52.672 219.182 50.768V45.504H216.998C214.982 45.504 213.47 45.8587 212.462 46.568C211.491 47.2773 211.006 48.3787 211.006 49.872C211.006 51.0667 211.304 52 211.902 52.672C212.536 53.3067 213.395 53.624 214.478 53.624ZM251.038 28.424C252.12 28.424 253.11 28.5547 254.006 28.816L252.606 37.384C251.486 37.1227 250.59 36.992 249.918 36.992C248.163 36.992 246.819 37.608 245.886 38.84C244.99 40.0347 244.28 41.8453 243.758 44.272V59H234.91V29.264H242.638L243.366 35.032C244.038 32.9787 245.046 31.3733 246.39 30.216C247.771 29.0213 249.32 28.424 251.038 28.424ZM273.514 28.424C274.597 28.424 275.586 28.5547 276.482 28.816L275.082 37.384C273.962 37.1227 273.066 36.992 272.394 36.992C270.639 36.992 269.295 37.608 268.362 38.84C267.466 40.0347 266.757 41.8453 266.234 44.272V59H257.386V29.264H265.114L265.842 35.032C266.514 32.9787 267.522 31.3733 268.866 30.216C270.247 29.0213 271.797 28.424 273.514 28.424ZM304.095 43.544C304.095 44.776 304.039 45.84 303.927 46.736H285.503C285.802 49.2373 286.511 50.992 287.631 52C288.751 53.008 290.301 53.512 292.279 53.512C293.474 53.512 294.631 53.3067 295.751 52.896C296.871 52.448 298.085 51.776 299.391 50.88L303.031 55.808C299.559 58.5707 295.695 59.952 291.439 59.952C286.623 59.952 282.927 58.5333 280.351 55.696C277.775 52.8587 276.487 49.0507 276.487 44.272C276.487 41.248 277.029 38.5413 278.111 36.152C279.194 33.7253 280.781 31.8213 282.871 30.44C284.962 29.0213 287.463 28.312 290.375 28.312C294.669 28.312 298.029 29.656 300.455 32.344C302.882 35.032 304.095 38.7653 304.095 43.544ZM295.415 41.024C295.341 36.4693 293.735 34.192 290.599 34.192C289.069 34.192 287.874 34.752 287.015 35.872C286.194 36.992 285.69 38.84 285.503 41.416H295.415V41.024ZM317.914 29.264V59H309.066V29.264H317.914ZM313.434 13.584C314.964 13.584 316.215 14.0693 317.186 15.04C318.194 15.9733 318.698 17.168 318.698 18.624C318.698 20.08 318.194 21.2933 317.186 22.264C316.215 23.1973 314.964 23.664 313.434 23.664C311.903 23.664 310.652 23.1973 309.682 22.264C308.711 21.2933 308.226 20.08 308.226 18.624C308.226 17.168 308.711 15.9733 309.682 15.04C310.652 14.0693 311.903 13.584 313.434 13.584ZM340.998 28.424C342.081 28.424 343.07 28.5547 343.966 28.816L342.566 37.384C341.446 37.1227 340.55 36.992 339.878 36.992C338.124 36.992 336.78 37.608 335.846 38.84C334.95 40.0347 334.241 41.8453 333.718 44.272V59H324.87V29.264H332.598L333.326 35.032C333.998 32.9787 335.006 31.3733 336.35 30.216C337.732 29.0213 339.281 28.424 340.998 28.424ZM369.01 50.376C369.01 51.496 369.16 52.3173 369.458 52.84C369.794 53.3627 370.317 53.7547 371.026 54.016L369.178 59.784C367.349 59.6347 365.856 59.2427 364.698 58.608C363.541 57.936 362.645 56.8907 362.01 55.472C360.069 58.4587 357.082 59.952 353.05 59.952C350.101 59.952 347.749 59.0933 345.994 57.376C344.24 55.6587 343.362 53.4187 343.362 50.656C343.362 47.408 344.557 44.9253 346.946 43.208C349.336 41.4907 352.789 40.632 357.306 40.632H360.33V39.344C360.33 37.5893 359.957 36.3947 359.21 35.76C358.464 35.088 357.157 34.752 355.29 34.752C354.32 34.752 353.144 34.9013 351.762 35.2C350.381 35.4613 348.962 35.8347 347.506 36.32L345.49 30.496C347.357 29.7867 349.261 29.2453 351.202 28.872C353.181 28.4987 355.01 28.312 356.69 28.312C360.946 28.312 364.064 29.1893 366.042 30.944C368.021 32.6987 369.01 35.3307 369.01 38.84V50.376ZM355.626 53.624C357.642 53.624 359.21 52.672 360.33 50.768V45.504H358.146C356.13 45.504 354.618 45.8587 353.61 46.568C352.64 47.2773 352.154 48.3787 352.154 49.872C352.154 51.0667 352.453 52 353.05 52.672C353.685 53.3067 354.544 53.624 355.626 53.624ZM385.983 28.312C388.111 28.312 390.108 28.6293 391.975 29.264C393.842 29.8987 395.484 30.7947 396.903 31.952L393.655 36.936C391.228 35.4053 388.783 34.64 386.319 34.64C385.162 34.64 384.266 34.8453 383.631 35.256C383.034 35.6293 382.735 36.1707 382.735 36.88C382.735 37.44 382.866 37.9067 383.127 38.28C383.426 38.616 384.004 38.9707 384.863 39.344C385.722 39.7173 387.047 40.1653 388.839 40.688C391.938 41.584 394.234 42.76 395.727 44.216C397.258 45.6347 398.023 47.6133 398.023 50.152C398.023 52.168 397.444 53.9227 396.287 55.416C395.13 56.872 393.543 57.992 391.527 58.776C389.511 59.56 387.271 59.952 384.807 59.952C382.306 59.952 379.972 59.56 377.807 58.776C375.679 57.992 373.868 56.9093 372.375 55.528L376.687 50.712C379.188 52.6533 381.82 53.624 384.583 53.624C385.927 53.624 386.972 53.3813 387.719 52.896C388.503 52.4107 388.895 51.72 388.895 50.824C388.895 50.1147 388.746 49.5547 388.447 49.144C388.148 48.7333 387.57 48.36 386.711 48.024C385.852 47.6507 384.49 47.2027 382.623 46.68C379.674 45.8213 377.471 44.6267 376.015 43.096C374.559 41.5653 373.831 39.6613 373.831 37.384C373.831 35.6667 374.316 34.136 375.287 32.792C376.295 31.4107 377.714 30.328 379.543 29.544C381.41 28.7227 383.556 28.312 385.983 28.312Z" fill="#141414"/>
</svg>
